<svg viewBox="0 0 311 81" fill="none" xmlns="http://www.w3.org/2000/svg">
<path d="M197.017 38.7708C197.017 38.7708 194.212 27.6785 186.69 17.0963C179.231 6.51398 166.418 -3.17582 152.393 1.35033L152.648 2.17907C172.155 -4.0683 183.821 17.67 190.515 32.2047C192.427 36.4121 192.682 39.0258 192.682 39.0258L197.017 38.7708Z" fill="white"/>
<path d="M165.143 41.6395C165.143 41.6395 161.127 53.178 153.604 63.824C146.146 74.4063 133.332 84.0961 119.307 79.5699L119.562 78.7412C139.07 84.9886 151.373 62.7403 158.003 48.2056C159.915 43.9982 161.828 40.3645 161.828 40.3645L165.143 41.6395Z" fill="#E4BE2D"/>
<path fill-rule="evenodd" clip-rule="evenodd" d="M19.4133 23.4073L18.4571 26.2123H18.3933C17.6284 24.2361 16.2259 22.8973 13.9947 22.8973C7.81106 22.8973 0.926208 31.0572 0.926208 37.3683C0.926208 42.2769 3.60365 45.7194 7.93856 45.7194C10.2973 45.7194 12.7835 44.3806 14.2497 42.2132H14.3772C14.4409 44.3169 16.0984 45.7194 18.2021 45.7194C20.6883 45.7194 23.6207 43.5519 25.7244 37.4958L24.7045 37.177C24.1307 39.3445 21.1983 43.9982 19.3496 43.9982C18.7758 43.9982 17.8834 43.6157 18.3296 42.2132L23.557 23.4711H19.4133V23.4073ZM8.2573 29.081C9.46853 26.6585 11.126 23.9173 13.9947 23.9173C16.2259 23.9173 17.5009 25.511 17.5009 27.7422C17.5009 30.6747 16.0984 35.1371 15.0784 37.8783C13.0385 43.4882 10.106 44.5719 8.70355 44.5719C6.34485 44.5719 5.06987 42.6594 5.06987 40.3645C5.13362 37.177 6.85483 31.8859 8.2573 29.081Z" fill="#E4BE2D"/>
<path fill-rule="evenodd" clip-rule="evenodd" d="M52.0526 36.7308C51.2877 38.5158 49.0565 43.7432 46.7615 43.7432C46.1878 43.7432 45.4228 43.1695 45.4228 42.4682C45.4228 42.4045 45.4865 42.1495 45.614 41.6395L54.7301 7.21521C53.4551 7.34271 52.1801 7.4702 48.2915 7.4702H46.1878L45.8053 8.74518H50.3314L45.9328 25.2561C44.7215 23.7261 43.0641 22.8336 41.0879 22.8336C34.3305 22.8336 28.2106 31.4397 28.2106 38.0696C28.2106 41.512 30.7606 45.6557 35.3505 45.6557C37.8367 45.6557 40.2591 44.3169 41.6616 42.3407H41.7891C41.8529 44.0619 43.1278 45.6557 45.0403 45.6557C49.5027 45.6557 51.7976 40.9383 53.2001 37.1133L52.0526 36.7308ZM33.948 32.9697C35.1592 29.5272 37.1992 23.9174 41.4704 23.9174C43.7653 23.9174 44.9128 25.5111 44.9128 27.6785C44.9128 29.846 43.5741 34.1171 42.9366 36.0934C40.8329 42.532 38.7292 44.5082 36.1792 44.5082C33.948 44.5082 32.418 42.7232 32.418 40.4283C32.418 38.1333 33.2468 35.2009 33.948 32.9697Z" fill="#E4BE2D"/>
<path fill-rule="evenodd" clip-rule="evenodd" d="M55.1126 31.2485C55.8138 29.5273 58.3 24.6186 60.0212 24.6186C60.595 24.6186 60.9774 25.1923 60.9774 25.6386C60.9774 26.0848 56.77 40.492 56.77 42.022C56.77 44.5719 59.2562 45.6557 61.4237 45.6557C70.476 45.6557 74.3647 31.6947 74.3647 26.5948C74.3647 24.2361 73.4084 22.8336 71.8785 22.8336C70.9222 22.8336 70.0298 23.5986 70.0298 24.6186C70.0298 27.1048 72.8347 26.2761 72.8347 28.571C72.8347 32.5872 68.3723 44.2532 62.5074 44.2532C61.4874 44.2532 60.4037 44.062 60.4037 42.532C60.4037 41.5758 64.9299 26.9136 64.9299 25.8298C64.9299 23.7261 63.5911 22.7699 61.8062 22.7699C57.7263 22.7699 55.3038 27.6785 53.9651 31.121H55.1126V31.2485Z" fill="#E4BE2D"/>
<path fill-rule="evenodd" clip-rule="evenodd" d="M88.453 37.1772C87.3056 40.0459 85.2656 43.7433 83.0344 43.7433C82.3969 43.7433 81.5044 43.4245 81.5044 42.7233C81.5044 42.1496 81.8232 41.3846 82.0144 40.7471L86.7956 22.8337C84.6919 23.025 80.9944 23.4075 79.4645 23.4075H78.4445L78.062 24.6824H82.3969L78.3807 39.7909C78.1895 40.6833 77.807 42.1496 77.807 42.8508C77.807 44.827 79.5282 45.7195 81.2494 45.7195C85.3293 45.7195 87.943 42.4046 89.473 37.6234L88.453 37.1772ZM86.8593 14.4189C88.2618 14.4189 89.3455 13.3352 89.3455 11.8052C89.3455 10.339 88.2618 9.12775 86.8593 9.12775C85.4568 9.12775 84.3731 10.339 84.3731 11.8052C84.3731 13.3352 85.4568 14.4189 86.8593 14.4189Z" fill="#E4BE2D"/>
<path fill-rule="evenodd" clip-rule="evenodd" d="M97.0592 45.6556C103.753 45.6556 105.219 40.1732 105.219 38.8983C105.283 37.4958 105.028 36.0296 104.263 35.0096C101.203 31.0572 97.888 29.3997 97.888 27.041C97.888 24.9373 99.4817 23.9811 101.267 23.9811C102.159 23.9811 103.243 24.1723 103.243 25.1285C103.243 25.5748 102.924 26.3398 102.924 26.786C102.924 27.6785 103.498 28.4435 104.645 28.4435C105.793 28.4435 106.558 27.7422 106.558 26.4035C106.558 23.6623 103.498 22.8973 101.968 22.8973C98.5255 22.8973 94.8918 24.7461 94.8918 28.8897C94.8918 34.2446 101.84 37.177 101.84 40.8745C101.84 43.1694 100.438 44.6356 96.613 44.6356C95.7843 44.6356 93.8718 44.3806 93.8718 43.3607C93.8718 42.9144 94.7005 41.8944 94.7005 40.8745C94.7005 39.6632 93.7443 38.7708 92.5968 38.7708C91.1944 38.7708 90.5569 40.1095 90.5569 41.3845C90.6844 42.5957 91.5769 45.6556 97.0592 45.6556Z" fill="#E4BE2D"/>
<path fill-rule="evenodd" clip-rule="evenodd" d="M131.292 31.5672C131.292 26.9135 127.977 22.8973 123.324 22.8973C116.375 22.8973 110.064 30.3559 110.064 37.7508C110.064 41.3845 112.933 45.7194 118.606 45.7194C125.3 45.6556 131.292 37.8783 131.292 31.5672ZM116.439 29.9097C117.459 26.9135 119.435 23.9173 122.877 23.9173C125.682 23.9173 126.766 25.7023 126.766 28.4435C126.766 31.8222 125.81 35.3283 124.662 38.5158C123.579 41.5757 121.921 44.5081 118.288 44.5081C115.801 44.5081 114.144 42.4044 114.144 39.982C114.208 38.0695 115.801 31.8222 116.439 29.9097Z" fill="#E4BE2D"/>
<path fill-rule="evenodd" clip-rule="evenodd" d="M134.48 45.0819H138.432L140.982 34.8821C142.321 29.591 145.508 25.766 146.656 25.766C147.612 25.766 148.249 27.2323 149.779 27.2323C150.991 27.2323 151.947 26.276 151.947 25.0648C151.947 23.6623 150.672 22.8973 149.461 22.8973C146.528 22.8973 144.042 25.8935 142.703 28.4435L142.576 28.3797L143.915 22.8973C141.811 23.0886 138.113 23.4711 136.583 23.4711H135.563L135.181 24.7461H139.516L134.48 45.0819Z" fill="#E4BE2D"/>
<path fill-rule="evenodd" clip-rule="evenodd" d="M153.413 31.8222C154.178 30.2922 155.708 25.0011 157.875 25.0011C159.533 25.0011 159.597 28.2523 159.788 29.2722C160.298 32.2684 161.892 44.2532 161.892 45.2732C161.892 48.1418 159.724 54.8992 163.613 45.9106C166.8 38.6433 171.263 25.5748 172.028 25.5748C172.793 25.5748 174.705 22.8336 173.558 22.8336C171.773 22.8336 171.709 24.9373 169.478 29.7185L165.334 38.7708H165.206L163.868 30.101C162.911 23.7261 161.445 22.8336 159.342 22.8336C155.58 22.8336 153.54 28.4435 152.329 31.4397L153.413 31.8222Z" fill="#E4BE2D"/>
<path d="M162.72 39.7269C162.72 39.7269 166.737 28.1884 174.259 17.5424C181.717 6.96008 194.531 -2.72972 208.556 1.79644L208.301 2.62517C188.794 -3.6222 175.661 18.6261 168.968 33.1608C167.055 37.3682 165.143 41.0019 165.143 41.0019L162.72 39.7269Z" fill="#E4BE2D"/>
<path d="M193.065 36.6671H196.252L207.472 67.2664H203.328L200.715 59.6803H188.22L185.606 67.2664H181.462L193.065 36.6671ZM199.376 56.0467L194.531 42.0219H194.467L189.495 56.0467H199.376Z" fill="white"/>
<path d="M212.317 36.6671H215.887V63.3778H227.999V67.2664H212.317V36.6671Z" fill="white"/>
<path d="M232.716 36.6671H243.043C250.566 36.6671 252.478 41.3845 252.478 45.2094C252.478 49.0343 250.566 53.7517 243.043 53.7517H236.669V67.2664H232.652V36.6671H232.716ZM236.732 50.118H241.96C245.147 50.118 248.271 49.353 248.271 45.2094C248.271 41.0657 245.083 40.3007 241.96 40.3007H236.732V50.118Z" fill="white"/>
<path d="M258.853 36.6671H262.423V49.353H276.002V36.6671H279.572V67.2664H276.002V53.2417H262.423V67.2664H258.853V36.6671Z" fill="white"/>
<path d="M296.019 36.6671H299.206L310.426 67.2664H306.282L303.669 59.6803H291.174L288.56 67.2664H284.48L296.019 36.6671ZM302.33 56.0467L297.421 42.0219H297.358L292.385 56.0467H302.33Z" fill="white"/>
</svg>
