<svg viewBox="0 0 812 211" fill="none" xmlns="http://www.w3.org/2000/svg">
<path d="M513.959 101.072C513.959 101.072 506.607 71.9991 486.891 44.2627C467.342 16.5263 433.757 -8.87086 396.998 2.9923L397.666 5.16443C448.795 -11.2101 479.372 45.7665 496.916 83.8623C501.929 94.89 502.597 101.741 502.597 101.741L513.959 101.072Z" fill="#918A8A"/>
<path d="M430.415 108.591C430.415 108.591 419.889 138.834 400.173 166.737C380.624 194.474 347.039 219.871 310.28 208.008L310.948 205.836C362.077 222.21 394.325 163.897 411.702 125.801C416.714 114.773 421.727 105.249 421.727 105.249L430.415 108.591Z" fill="#E4BE2D"/>
<path fill-rule="evenodd" clip-rule="evenodd" d="M48.4552 60.8042L45.9489 68.156H45.7818C43.7767 62.9763 40.1008 59.4675 34.2528 59.4675C18.0454 59.4675 0 80.8546 0 97.3962C0 110.262 7.01764 119.285 18.3795 119.285C24.5617 119.285 31.0781 115.776 34.9211 110.095H35.2553C35.4224 115.609 39.7667 119.285 45.2805 119.285C51.7969 119.285 59.4829 113.604 64.9967 97.7304L62.3234 96.895C60.8196 102.576 53.1336 114.773 48.2881 114.773C46.7843 114.773 44.4451 113.771 45.6147 110.095L59.3158 60.9713H48.4552V60.8042ZM19.215 75.6749C22.3896 69.3256 26.7339 62.1409 34.2528 62.1409C40.1008 62.1409 43.4426 66.3181 43.4426 72.1661C43.4426 79.8521 39.7666 91.5482 37.0933 98.7329C31.7465 113.437 24.0605 116.277 20.3846 116.277C14.2024 116.277 10.8606 111.264 10.8606 105.249C11.0277 96.895 15.5391 83.0268 19.215 75.6749Z" fill="#E4BE2D"/>
<path fill-rule="evenodd" clip-rule="evenodd" d="M134.004 95.7255C131.999 100.404 126.151 114.105 120.136 114.105C118.632 114.105 116.627 112.601 116.627 110.763C116.627 110.596 116.794 109.928 117.128 108.591L141.021 18.3644C137.68 18.6986 134.338 19.0327 124.146 19.0327H118.632L117.629 22.3745H129.492L117.963 65.6499C114.789 61.6398 110.445 59.3006 105.265 59.3006C87.5536 59.3006 71.5133 81.8574 71.5133 99.2344C71.5133 108.257 78.1968 119.118 90.227 119.118C96.7434 119.118 103.093 115.609 106.769 110.429H107.103C107.27 114.941 110.612 119.118 115.624 119.118C127.32 119.118 133.335 106.753 137.011 96.7281L134.004 95.7255ZM86.5511 85.8674C89.7258 76.8447 95.0725 62.1411 106.267 62.1411C112.282 62.1411 115.29 66.3183 115.29 71.9992C115.29 77.6802 111.781 88.875 110.11 94.0547C104.596 110.93 99.0826 116.11 92.3991 116.11C86.5511 116.11 82.541 111.432 82.541 105.417C82.541 99.4015 84.7132 91.7155 86.5511 85.8674Z" fill="#E4BE2D"/>
<path fill-rule="evenodd" clip-rule="evenodd" d="M142.024 81.356C143.862 76.8446 150.378 63.9789 154.889 63.9789C156.393 63.9789 157.396 65.4827 157.396 66.6523C157.396 67.8219 146.368 105.584 146.368 109.594C146.368 116.277 152.884 119.118 158.565 119.118C182.292 119.118 192.484 82.5256 192.484 69.1586C192.484 62.9764 189.978 59.3005 185.967 59.3005C183.461 59.3005 181.122 61.3055 181.122 63.9789C181.122 70.4953 188.474 68.3232 188.474 74.3383C188.474 84.8648 176.778 115.442 161.406 115.442C158.732 115.442 155.892 114.94 155.892 110.93C155.892 108.424 167.755 69.9941 167.755 67.1536C167.755 61.6397 164.246 59.1334 159.568 59.1334C148.874 59.1334 142.525 71.9991 139.016 81.0218H142.024V81.356Z" fill="#E4BE2D"/>
<path fill-rule="evenodd" clip-rule="evenodd" d="M229.41 96.895C226.403 104.414 221.056 114.105 215.208 114.105C213.537 114.105 211.198 113.27 211.198 111.432C211.198 109.928 212.033 107.923 212.534 106.252L225.066 59.3005C219.552 59.8017 209.861 60.8043 205.851 60.8043H203.177L202.175 64.146H213.537L203.01 103.746C202.509 106.085 201.507 109.928 201.507 111.766C201.507 116.945 206.018 119.285 210.529 119.285C221.223 119.285 228.073 110.596 232.083 98.0646L229.41 96.895ZM225.233 37.245C228.909 37.245 231.749 34.4046 231.749 30.3945C231.749 26.5515 228.909 23.3768 225.233 23.3768C221.557 23.3768 218.717 26.5515 218.717 30.3945C218.717 34.4046 221.557 37.245 225.233 37.245Z" fill="#E4BE2D"/>
<path fill-rule="evenodd" clip-rule="evenodd" d="M251.967 119.117C269.511 119.117 273.354 104.748 273.354 101.406C273.521 97.7304 272.853 93.8874 270.847 91.214C262.827 80.8546 254.139 76.5104 254.139 70.3282C254.139 64.8143 258.316 62.308 262.994 62.308C265.334 62.308 268.174 62.8093 268.174 65.3156C268.174 66.4852 267.339 68.4902 267.339 69.6598C267.339 71.999 268.842 74.0041 271.85 74.0041C274.858 74.0041 276.863 72.1661 276.863 68.6573C276.863 61.4726 268.842 59.4675 264.832 59.4675C255.81 59.4675 246.286 64.313 246.286 75.1737C246.286 89.209 264.498 96.895 264.498 106.586C264.498 112.601 260.822 116.444 250.797 116.444C248.625 116.444 243.612 115.776 243.612 113.102C243.612 111.933 245.784 109.259 245.784 106.586C245.784 103.411 243.278 101.072 240.271 101.072C236.595 101.072 234.924 104.581 234.924 107.923C235.258 111.097 237.597 119.117 251.967 119.117Z" fill="#E4BE2D"/>
<path fill-rule="evenodd" clip-rule="evenodd" d="M341.692 82.1913C341.692 69.994 333.004 59.4675 320.807 59.4675C302.594 59.4675 286.052 79.0167 286.052 98.3988C286.052 107.923 293.571 119.285 308.442 119.285C325.986 119.118 341.692 98.7329 341.692 82.1913ZM302.761 77.8471C305.435 69.994 310.614 62.1409 319.637 62.1409C326.989 62.1409 329.829 66.8193 329.829 74.0041C329.829 82.8597 327.323 92.0494 324.315 100.404C321.475 108.424 317.131 116.11 307.607 116.11C301.09 116.11 296.746 110.596 296.746 104.247C296.913 99.2342 301.09 82.8597 302.761 77.8471Z" fill="#E4BE2D"/>
<path fill-rule="evenodd" clip-rule="evenodd" d="M350.047 117.614H360.406L367.09 90.8798C370.598 77.0116 378.953 66.9864 381.96 66.9864C384.467 66.9864 386.137 70.8294 390.148 70.8294C393.322 70.8294 395.829 68.3231 395.829 65.1485C395.829 61.4726 392.487 59.4675 389.312 59.4675C381.626 59.4675 375.11 67.3206 371.601 74.0041L371.267 73.837L374.776 59.4675C369.262 59.9688 359.571 60.9713 355.561 60.9713H352.887L351.885 64.313H363.247L350.047 117.614Z" fill="#E4BE2D"/>
<path fill-rule="evenodd" clip-rule="evenodd" d="M399.671 82.8599C401.677 78.8498 405.687 64.9816 411.368 64.9816C415.712 64.9816 415.879 73.503 416.38 76.1764C417.717 84.0295 421.894 115.442 421.894 118.115C421.894 125.634 416.213 143.345 426.405 119.786C434.76 100.738 446.456 66.4854 448.461 66.4854C450.466 66.4854 455.478 59.3007 452.471 59.3007C447.792 59.3007 447.625 64.8145 441.777 77.346L430.917 101.072H430.583L427.074 78.3486C424.567 61.6399 420.724 59.3007 415.211 59.3007C405.352 59.3007 400.006 74.0043 396.831 81.8574L399.671 82.8599Z" fill="#E4BE2D"/>
<path d="M424.066 103.578C424.066 103.578 434.593 73.3358 454.309 45.4323C473.858 17.6959 507.443 -7.7013 544.202 4.16186L543.533 6.33399C492.405 -10.0405 457.985 48.2728 440.441 86.3685C435.428 97.3963 430.416 106.92 430.416 106.92L424.066 103.578Z" fill="#E4BE2D"/>
<path d="M503.6 95.5586H511.954L541.361 175.76H530.5L523.65 155.877H490.901L484.05 175.76H473.19L503.6 95.5586ZM520.141 146.353L507.442 109.594H507.275L494.243 146.353H520.141Z" fill="#918A8A"/>
<path d="M554.06 95.5586H563.417V165.568H595.163V175.76H554.06V95.5586Z" fill="#918A8A"/>
<path d="M607.528 95.5586H634.596C654.312 95.5586 659.324 107.923 659.324 117.948C659.324 127.973 654.312 140.338 634.596 140.338H617.887V175.76H607.36V95.5586H607.528ZM618.054 130.814H631.755C640.109 130.814 648.297 128.809 648.297 117.948C648.297 107.088 639.942 105.083 631.755 105.083H618.054V130.814Z" fill="#918A8A"/>
<path d="M676.033 95.5586H685.39V128.809H720.979V95.5586H730.336V175.76H720.979V139.001H685.39V175.76H676.033V95.5586Z" fill="#918A8A"/>
<path d="M773.444 95.5586H781.799L811.206 175.76H800.345L793.495 155.877H760.746L753.895 175.76H743.202L773.444 95.5586ZM789.986 146.353L777.12 109.594H776.953L763.92 146.353H789.986Z" fill="#918A8A"/>
</svg>
